osimModel_states
version=1
nRows=13
nColumns=17
inDegrees=yes

# SIMM Motion File Header:
name osimModel_states
datacolumns 17
datarows 13
otherdata 1
range 0.00000000 0.05615205
endheader
time	blockToGround_xRotation	blockToGround_yRotation	blockToGround_zRotation	blockToGround_xTranslation	blockToGround_yTranslation	blockToGround_zTranslation	blockToGround_xRotation_u	blockToGround_yRotation_u	blockToGround_zRotation_u	blockToGround_xTranslation_u	blockToGround_yTranslation_u	blockToGround_zTranslation_u	muscle1.activation	muscle1.fiber_length	muscle2.activation	muscle2.fiber_length
      0.00000000	      0.00000000	      0.00000000	      0.00000000	      0.00000000	      0.00000000	      0.00000000	      0.00000000	      0.00000000	      0.00000000	      0.00000000	      0.00000000	      0.47123890	      0.01000000	      0.20000000	      0.01000000	      0.20000000
      0.00429506	      0.00074607	     -0.00000000	     -0.00000001	      0.00000000	     -0.00008350	      0.00202226	      0.66457786	     -0.00001846	     -0.00007388	      0.00000000	     -0.03589216	      0.46968115	      0.00900252	      0.19740829	      0.00898188	      0.19740781
      0.00958985	      0.01570880	     -0.00000162	     -0.00000646	      0.00000000	     -0.00030141	      0.00448173	      5.92016607	     -0.00102190	     -0.00408117	      0.00000004	     -0.03691632	      0.45695957	      0.00796362	      0.19454097	      0.00786828	      0.19454229
      0.01488465	      0.07076628	     -0.00002034	     -0.00008080	      0.00000000	     -0.00038867	      0.00683985	     14.98530246	     -0.00750600	     -0.02988955	      0.00000073	      0.00768260	      0.43283928	      0.00709440	      0.19197367	      0.00689274	      0.19198432
      0.02017944	      0.16820589	     -0.00010310	     -0.00040735	      0.00000001	     -0.00023786	      0.00906976	     20.60663885	     -0.02579178	     -0.10284980	      0.00000345	      0.04264277	      0.41112350	      0.00634416	      0.18965624	      0.00603816	      0.18968567
      0.02291693	      0.22443210	     -0.00019453	     -0.00076737	      0.00000002	     -0.00012079	      0.01018593	     20.09999618	     -0.03996357	     -0.15996604	      0.00000528	      0.04036666	      0.40497602	      0.00598852	      0.18854353	      0.00563875	      0.18858591
      0.02565441	      0.27728343	     -0.00032386	     -0.00127656	      0.00000004	     -0.00002745	      0.01128964	     18.49882018	     -0.05239332	     -0.21054525	      0.00000676	      0.02661821	      0.40169140	      0.00564973	      0.18748360	      0.00526576	      0.18754049
      0.02939232	      0.34264211	     -0.00054959	     -0.00216494	      0.00000007	      0.00002656	      0.01278534	     16.48878130	     -0.06603485	     -0.26643792	      0.00000856	      0.00187832	      0.39869374	      0.00521036	      0.18611521	      0.00479598	      0.18619337
      0.03526953	      0.42853750	     -0.00101657	     -0.00400223	      0.00000013	     -0.00006671	      0.01511218	     12.35759351	     -0.08789441	     -0.35743936	      0.00001369	     -0.03041398	      0.39232538	      0.00456449	      0.18413110	      0.00414063	      0.18424264
      0.03999916	      0.47541420	     -0.00149719	     -0.00590071	      0.00000022	     -0.00022849	      0.01694474	      7.31624396	     -0.10999698	     -0.45143214	      0.00002459	     -0.03321155	      0.38140649	      0.00407423	      0.18266859	      0.00367887	      0.18280335
      0.04472991	      0.49742135	     -0.00207334	     -0.00819372	      0.00000038	     -0.00033618	      0.01870925	      2.04089013	     -0.12436346	     -0.51639458	      0.00004525	     -0.00879276	      0.36368733	      0.00361980	      0.18131379	      0.00329274	      0.18146459
      0.04946067	      0.49520059	     -0.00270733	     -0.01074451	      0.00000066	     -0.00029850	      0.02038248	     -3.04960827	     -0.13001582	     -0.54732385	      0.00007049	      0.02339978	      0.34402593	      0.00321603	      0.18005540	      0.00301005	      0.18021022
      0.05615205	      0.44933584	     -0.00354664	     -0.01419902	      0.00000122	     -0.00008098	      0.02261425	    -10.49861648	     -0.10874091	     -0.47248743	      0.00009367	      0.03253557	      0.32529713	      0.00272063	      0.17841942	      0.00280041	      0.17854703
